<svg xmlns="http://www.w3.org/2000/svg" width="700" height="100">
	<path fill="#fff" fill-rule="evenodd" d="M15.893 68.083v-45.9h14.045q9.588 0 13.905 6.144t4.317 17.254a36.147 36.147 0 0 1-.6 6.266 25.366 25.366 0 0 1-3.382 9.277 14.587 14.587 0 0 1-7.559 6.1 21.428 21.428 0 0 1-6.6.855H15.893zM7.714 75h23.811q15.178 0 21.4-13.59a40.752 40.752 0 0 0 3.536-17.21q0-12.329-5.983-20.223-6.706-8.748-18.873-8.748H7.714V75zM79.2 30.444A18.626 18.626 0 0 0 64.4 37q-5.662 6.552-5.662 17.049 0 10.661 5.62 16.581a18.185 18.185 0 0 0 13.708 5.92A24.749 24.749 0 0 0 84 75.9a16.9 16.9 0 0 0 8.2-4.4 19.248 19.248 0 0 0 3.586-4.822 15.173 15.173 0 0 0 1.892-5.351h-7.2a12.955 12.955 0 0 1-2.689 5.11 11.57 11.57 0 0 1-9.084 3.8q-6.1 0-9-4.019T66.59 55.55h31.7a50.642 50.642 0 0 0-.647-9.6 19.521 19.521 0 0 0-2.912-7.69 16.516 16.516 0 0 0-6.592-5.635 19.664 19.664 0 0 0-8.939-2.181zM66.752 49.731a13.819 13.819 0 0 1 3.591-9.257 11.005 11.005 0 0 1 8.392-3.642q6.98 0 9.966 5.29a19.107 19.107 0 0 1 2.058 7.609H66.752zm32.793 11.6a16.587 16.587 0 0 0 4.387 10.925q4.1 4.415 13.945 4.415 9.145 0 13.615-4.232a13.379 13.379 0 0 0 4.47-10.05q0-6.022-4.272-8.83-2.737-1.79-10.779-3.7l-4.934-1.18a17.451 17.451 0 0 1-4.892-1.787 5.124 5.124 0 0 1-2.873-4.541 4.915 4.915 0 0 1 2.188-4.181q2.187-1.581 6.435-1.581 6.373 0 8.956 2.873a8.294 8.294 0 0 1 1.791 4.492h6.918a12.442 12.442 0 0 0-2.681-7.894q-4.412-5.777-14.391-5.778-7.63 0-12.144 3.825a12.487 12.487 0 0 0-4.516 10.01 9.215 9.215 0 0 0 4.8 8.219 29.129 29.129 0 0 0 8.353 3.093l5.914 1.465a30.4 30.4 0 0 1 6.368 2.075 4.668 4.668 0 0 1 2.522 4.273 5.856 5.856 0 0 1-3.156 5.473 14.694 14.694 0 0 1-7.309 1.77q-6.978 0-9.8-3.54a10.5 10.5 0 0 1-1.869-5.615h-7.045zM138.564 75h7.447V31.624h-7.447V75zm0-51.473h7.447v-8.3h-7.447v8.3zm28.491 7.121a16.457 16.457 0 0 0-12.869 6.144q-5.331 6.144-5.33 17.09 0 11.6 5.289 16.622a18.838 18.838 0 0 0 20.489 3.4 14.328 14.328 0 0 0 5.269-4.964q.122 8.993-1.417 12.492-2.591 5.94-10.966 5.941-5.3 0-7.77-2.441a8.3 8.3 0 0 1-2.1-4.517h-7.45q.568 6.714 5.354 9.867a21 21 0 0 0 11.8 3.153q12.611 0 17.154-8.87 2.433-4.8 2.433-13.1V31.828h-6.755v5.493a20.082 20.082 0 0 0-4.215-4.15 15.779 15.779 0 0 0-8.917-2.523zm13.132 22.379a23.062 23.062 0 0 1-1.781 9.4 11.221 11.221 0 0 1-11.051 7.121 9.589 9.589 0 0 1-8-3.845q-2.975-3.845-2.975-11.21a28.527 28.527 0 0 1 1.5-10.132q2.833-7.242 10.525-7.243a10.613 10.613 0 0 1 8.461 3.906q3.32 3.906 3.319 12zM192.758 75h7.324V52.173a30.009 30.009 0 0 1 .549-6.571 10.793 10.793 0 0 1 2.381-4.456 11 11 0 0 1 5.289-3.581 14.435 14.435 0 0 1 4.273-.529q5.127 0 7.08 4.069a14.884 14.884 0 0 1 1.18 6.429V75h7.446V47.046q0-6.592-1.79-10.132-3.257-6.47-12.533-6.47a17.469 17.469 0 0 0-7.69 1.668 19.517 19.517 0 0 0-6.551 5.493v-6.184h-6.958V75zm58.993-44.556A18.627 18.627 0 0 0 236.95 37q-5.662 6.552-5.662 17.049 0 10.661 5.621 16.581a18.183 18.183 0 0 0 13.708 5.92 24.747 24.747 0 0 0 5.936-.651 16.9 16.9 0 0 0 8.2-4.395 19.241 19.241 0 0 0 3.586-4.822 15.177 15.177 0 0 0 1.892-5.351h-7.2a12.95 12.95 0 0 1-2.69 5.11 11.57 11.57 0 0 1-9.084 3.8q-6.1 0-9-4.019t-3.109-10.67h31.7a50.654 50.654 0 0 0-.647-9.6 19.524 19.524 0 0 0-2.912-7.69 16.514 16.514 0 0 0-6.592-5.635 19.664 19.664 0 0 0-8.937-2.177zM239.3 49.731a13.822 13.822 0 0 1 3.591-9.257 11.006 11.006 0 0 1 8.393-3.642q6.979 0 9.965 5.29a19.116 19.116 0 0 1 2.059 7.609H239.3zm40.118 3.988q0-8.219 3.42-12.451a10.936 10.936 0 0 1 8.927-4.232 10.464 10.464 0 0 1 8.3 3.967q3.36 3.967 3.36 12.227 0 8.179-3.259 12.553a9.963 9.963 0 0 1-8.319 4.374q-6.519 0-9.474-4.72a21.688 21.688 0 0 1-2.955-11.719zm10.954-23.071q-9 0-13.842 6.978a28.211 28.211 0 0 0-4.843 16.5q0 10.173 5.31 16.3t12.565 6.124a17.241 17.241 0 0 0 7.986-1.79 15.815 15.815 0 0 0 6.04-5.819V75h6.592V15.023h-7.04v22.013a19.639 19.639 0 0 0-4.418-4.272 15.4 15.4 0 0 0-8.35-2.116zm41.286 25.838q0 9.359 6.786 14.709t18.631 5.351q11.6 0 17.952-5.432a17.21 17.21 0 0 0 6.354-13.651q0-8.016-5.363-12.248-3.453-2.725-10.373-4.354l-10.525-2.482a36.269 36.269 0 0 1-7.969-2.482 5.145 5.145 0 0 1-2.92-4.8 6.18 6.18 0 0 1 2.962-5.453 14.21 14.21 0 0 1 7.926-1.953 16.581 16.581 0 0 1 7.471 1.509 8.588 8.588 0 0 1 4.839 7.69h12.044q-.33-9.561-7.106-14.587a26.716 26.716 0 0 0-16.373-5.025q-11.493 0-17.424 5.33a17.237 17.237 0 0 0-5.931 13.387q0 8.83 6.062 12.98 3.581 2.482 13.153 4.6l6.494 1.424a28.49 28.49 0 0 1 8.327 2.808 5.127 5.127 0 0 1 2.625 4.6q0 5.087-5.359 6.958a22.973 22.973 0 0 1-7.354.977q-7.562 0-10.677-3.7a12.161 12.161 0 0 1-2.285-6.144h-11.963zm66.832-41.829h-11.755v10.7h11.759v-10.7zM386.735 75h11.759V30.648h-11.759V75zm69.883-45.329a17.26 17.26 0 0 0-7.975 1.831 14.742 14.742 0 0 0-5.656 5.737 13.018 13.018 0 0 0-3.825-5.33 16.1 16.1 0 0 0-16.967.366 18.634 18.634 0 0 0-4.069 4.924v-6.47h-11.272V75h11.76V48.307a12.371 12.371 0 0 1 .936-5.453q1.709-3.214 6.673-3.214 4.272 0 5.737 3.214a14.844 14.844 0 0 1 .814 5.737V75h11.678V48.592a12.523 12.523 0 0 1 .936-5.086q1.832-3.987 6.632-3.988 4.15 0 5.7 3.093a9.277 9.277 0 0 1 .814 4.15V75h11.881l.082-27.954a39.406 39.406 0 0 0-.407-6.551 12.751 12.751 0 0 0-2.523-5.7 12.9 12.9 0 0 0-5.168-3.988 15.444 15.444 0 0 0-5.778-1.139zm52.632 23.153q0 6.226-2.57 9.969a8.489 8.489 0 0 1-7.463 3.744 9.52 9.52 0 0 1-5.838-1.831q-4.149-3.133-4.149-10.864a22.479 22.479 0 0 1 1.233-8.057 8.72 8.72 0 0 1 8.756-5.981q5.3 0 7.667 3.947a17.325 17.325 0 0 1 2.364 9.074zm-6.711-23.153a14.809 14.809 0 0 0-9.255 2.97 18.641 18.641 0 0 0-4.013 4.557v-6.55h-11.109v61.808h11.475V69.344a17.079 17.079 0 0 0 3.768 4.272 14.318 14.318 0 0 0 8.846 2.645 17.216 17.216 0 0 0 13.658-6.144q5.3-6.144 5.3-17.863 0-11.108-5.426-16.846a17.54 17.54 0 0 0-13.247-5.737zm36.026-14.648h-11.6V75h11.6V15.023zm20.568-.366h-11.76v10.7h11.76v-10.7zM547.373 75h11.76V30.648h-11.76V75zm58.735-28.442q-.978-9.48-6.293-13.224T586.15 29.59q-9.817 0-15.4 6.348T565.174 53.7q0 10.113 5.05 16.46t15.763 6.348q10.712 0 16.17-7.609a19.392 19.392 0 0 0 3.829-10.01h-11.841a10.922 10.922 0 0 1-2.08 5.7q-1.713 2.2-5.792 2.2-5.753 0-7.832-5.534a22.217 22.217 0 0 1-1.142-7.833 24.167 24.167 0 0 1 1.142-8.2q2.159-5.822 8.036-5.822 4.119 0 6.077 2.685a10.277 10.277 0 0 1 1.672 4.476h11.882zm17.19-31.9h-11.759v10.7H623.3v-10.7zM611.539 75H623.3V30.648h-11.761V75zm21.95-35.685v27.3q0 4.15 1.954 6.144 3.011 3.134 11.23 2.848l5.493-.2V66.74q-.57.041-1.16.061t-1.118.02q-3.541 0-4.232-.671t-.692-3.4V39.315h7.2v-8.26h-7.2v-12.37h-11.475v12.37H627.3v8.26h6.184zM658.7 92.782q1.873.122 2.811.142t2.485.02q7.7 0 10.265-3.031t6.974-15.645l15.2-43.62h-12.329l-9.155 32.715-9.684-32.715h-12.9l16.3 46.305a6.975 6.975 0 0 1-.753 2.686 6.275 6.275 0 0 1-1.892 2.889 5.854 5.854 0 0 1-2.605.936 18.3 18.3 0 0 1-3.255.122L658.7 83.5v9.277z"/>
</svg>